<svg width="100" height="100" viewBox="0 0 100 100" fill="none" xmlns="http://www.w3.org/2000/svg">
<rect x="0.5" y="0.5" width="99" height="99" rx="9.5" stroke="black" stroke-linecap="round" stroke-linejoin="round" stroke-dasharray="5 5"/>
<path d="M32.9375 56.5625L41.9657 47.5342C42.3314 47.1686 42.7655 46.8786 43.2432 46.6807C43.7209 46.4828 44.2329 46.381 44.75 46.381C45.2671 46.381 45.7791 46.4828 46.2568 46.6807C46.7345 46.8786 47.1686 47.1686 47.5342 47.5342L56.5625 56.5625M53.9375 53.9375L56.4033 51.4717C56.7689 51.1061 57.203 50.8161 57.6807 50.6182C58.1584 50.4203 58.6704 50.3185 59.1875 50.3185C59.7046 50.3185 60.2166 50.4203 60.6943 50.6182C61.172 50.8161 61.6061 51.1061 61.9717 51.4717L67.0625 56.5625M35.5625 63.125H64.4375C65.1337 63.125 65.8014 62.8484 66.2937 62.3562C66.7859 61.8639 67.0625 61.1962 67.0625 60.5V39.5C67.0625 38.8038 66.7859 38.1361 66.2937 37.6438C65.8014 37.1516 65.1337 36.875 64.4375 36.875H35.5625C34.8663 36.875 34.1986 37.1516 33.7063 37.6438C33.2141 38.1361 32.9375 38.8038 32.9375 39.5V60.5C32.9375 61.1962 33.2141 61.8639 33.7063 62.3562C34.1986 62.8484 34.8663 63.125 35.5625 63.125ZM53.9375 43.4375H53.9515V43.4515H53.9375V43.4375ZM54.5938 43.4375C54.5938 43.6115 54.5246 43.7785 54.4015 43.9015C54.2785 44.0246 54.1115 44.0938 53.9375 44.0938C53.7635 44.0938 53.5965 44.0246 53.4735 43.9015C53.3504 43.7785 53.2812 43.6115 53.2812 43.4375C53.2812 43.2635 53.3504 43.0965 53.4735 42.9735C53.5965 42.8504 53.7635 42.7812 53.9375 42.7812C54.1115 42.7812 54.2785 42.8504 54.4015 42.9735C54.5246 43.0965 54.5938 43.2635 54.5938 43.4375Z" stroke="black" stroke-width="1.5" stroke-linecap="round" stroke-linejoin="round"/>
</svg>
