<svg width="20" height="20" viewBox="0 0 20 20" fill="none" xmlns="http://www.w3.org/2000/svg">
<path fill-rule="evenodd" clip-rule="evenodd" d="M5.5 10C5.5 10.4641 5.31563 10.9092 4.98744 11.2374C4.65925 11.5656 4.21413 11.75 3.75 11.75C3.28587 11.75 2.84075 11.5656 2.51256 11.2374C2.18437 10.9092 2 10.4641 2 10C2 9.53587 2.18437 9.09075 2.51256 8.76256C2.84075 8.43437 3.28587 8.25 3.75 8.25C4.21413 8.25 4.65925 8.43437 4.98744 8.76256C5.31563 9.09075 5.5 9.53587 5.5 10ZM11.75 10C11.75 10.2298 11.7047 10.4574 11.6168 10.6697C11.5288 10.882 11.3999 11.0749 11.2374 11.2374C11.0749 11.3999 10.882 11.5288 10.6697 11.6168C10.4574 11.7047 10.2298 11.75 10 11.75C9.77019 11.75 9.54262 11.7047 9.3303 11.6168C9.11798 11.5288 8.92507 11.3999 8.76256 11.2374C8.60006 11.0749 8.47116 10.882 8.38321 10.6697C8.29527 10.4574 8.25 10.2298 8.25 10C8.25 9.53587 8.43437 9.09075 8.76256 8.76256C9.09075 8.43437 9.53587 8.25 10 8.25C10.4641 8.25 10.9092 8.43437 11.2374 8.76256C11.5656 9.09075 11.75 9.53587 11.75 10ZM16.25 11.75C16.4798 11.75 16.7074 11.7047 16.9197 11.6168C17.132 11.5288 17.3249 11.3999 17.4874 11.2374C17.6499 11.0749 17.7788 10.882 17.8668 10.6697C17.9547 10.4574 18 10.2298 18 10C18 9.77019 17.9547 9.54262 17.8668 9.3303C17.7788 9.11798 17.6499 8.92507 17.4874 8.76256C17.3249 8.60006 17.132 8.47116 16.9197 8.38321C16.7074 8.29527 16.4798 8.25 16.25 8.25C15.7859 8.25 15.3408 8.43437 15.0126 8.76256C14.6844 9.09075 14.5 9.53587 14.5 10C14.5 10.4641 14.6844 10.9092 15.0126 11.2374C15.3408 11.5656 15.7859 11.75 16.25 11.75Z" fill="black"/>
</svg>
