<svg width="1242" height="2688" viewBox="0 0 1242 2688" fill="none" xmlns="http://www.w3.org/2000/svg">
<rect width="1242" height="2688" fill="#8700DA"/>
<path d="M330.284 1447H317.884C316.871 1447 316.124 1446.79 315.644 1446.36C315.218 1445.88 315.004 1445.13 315.004 1444.12V1392.28C315.004 1391.27 315.218 1390.55 315.644 1390.12C316.124 1389.64 316.871 1389.4 317.884 1389.4H353.564C354.578 1389.4 355.298 1389.64 355.724 1390.12C356.204 1390.55 356.444 1391.27 356.444 1392.28V1401.8C356.444 1402.81 356.204 1403.56 355.724 1404.04C355.298 1404.47 354.578 1404.68 353.564 1404.68H333.164V1413H347.084C348.098 1413 348.818 1413.24 349.244 1413.72C349.724 1414.15 349.964 1414.87 349.964 1415.88V1425.48C349.964 1426.49 349.724 1427.24 349.244 1427.72C348.818 1428.15 348.098 1428.36 347.084 1428.36H333.164V1444.12C333.164 1445.13 332.924 1445.88 332.444 1446.36C332.018 1446.79 331.298 1447 330.284 1447ZM323.724 1439.8H324.524V1421.08H342.764V1420.28H324.524V1397.4H349.244V1396.6H323.724V1439.8ZM391.338 1397.4C394.164 1397.4 396.244 1398.17 397.578 1399.72C398.964 1401.27 399.658 1403.27 399.658 1405.72V1411.32C399.658 1414.25 399.098 1416.52 397.978 1418.12C396.858 1419.72 394.644 1420.52 391.338 1420.52H373.898V1397.4H391.338ZM382.538 1403.8V1414.04H388.538C389.924 1414.04 390.858 1413.69 391.338 1413C391.818 1412.25 392.058 1411.35 392.058 1410.28V1407.56C392.058 1406.49 391.818 1405.61 391.338 1404.92C390.858 1404.17 389.924 1403.8 388.538 1403.8H382.538ZM373.898 1439.8V1421.24H396.538C399.578 1421.24 401.818 1421.91 403.258 1423.24C404.698 1424.52 405.418 1426.47 405.418 1429.08V1439.8H406.218V1429.08C406.218 1426.31 405.418 1424.2 403.818 1422.76C402.218 1421.27 399.791 1420.52 396.538 1420.52H395.658C397.578 1419.93 398.858 1418.87 399.498 1417.32C400.138 1415.72 400.458 1413.69 400.458 1411.24V1405.72C400.458 1403.11 399.711 1400.95 398.218 1399.24C396.724 1397.48 394.431 1396.6 391.338 1396.6H373.098V1439.8H373.898ZM379.658 1447H367.338C366.324 1447 365.578 1446.79 365.098 1446.36C364.671 1445.88 364.458 1445.13 364.458 1444.12V1392.28C364.458 1391.27 364.671 1390.55 365.098 1390.12C365.578 1389.64 366.324 1389.4 367.338 1389.4H393.978C399.951 1389.4 404.058 1390.65 406.298 1393.16C408.591 1395.61 409.738 1398.81 409.738 1402.76V1406.44C409.738 1408.68 409.391 1410.6 408.698 1412.2C408.058 1413.75 406.911 1414.87 405.258 1415.56C408.138 1415.88 410.458 1417.05 412.218 1419.08C414.031 1421.11 414.938 1423.8 414.938 1427.16V1444.12C414.938 1445.13 414.698 1445.88 414.218 1446.36C413.791 1446.79 413.071 1447 412.058 1447H399.658C398.644 1447 397.898 1446.79 397.418 1446.36C396.991 1445.88 396.778 1445.13 396.778 1444.12V1431.88C396.778 1430.71 396.538 1429.85 396.058 1429.32C395.631 1428.73 394.858 1428.44 393.738 1428.44H382.538V1444.12C382.538 1445.13 382.298 1445.88 381.818 1446.36C381.391 1446.79 380.671 1447 379.658 1447ZM463.911 1447H426.791C425.777 1447 425.031 1446.79 424.551 1446.36C424.124 1445.88 423.911 1445.13 423.911 1444.12V1392.28C423.911 1391.27 424.124 1390.55 424.551 1390.12C425.031 1389.64 425.777 1389.4 426.791 1389.4H463.911C464.924 1389.4 465.644 1389.64 466.071 1390.12C466.551 1390.55 466.791 1391.27 466.791 1392.28V1401.64C466.791 1402.65 466.551 1403.4 466.071 1403.88C465.644 1404.31 464.924 1404.52 463.911 1404.52H441.831V1410.68H457.431C458.444 1410.68 459.164 1410.92 459.591 1411.4C460.071 1411.83 460.311 1412.55 460.311 1413.56V1422.12C460.311 1423.13 460.071 1423.88 459.591 1424.36C459.164 1424.79 458.444 1425 457.431 1425H441.831V1431.88H463.911C464.924 1431.88 465.644 1432.12 466.071 1432.6C466.551 1433.03 466.791 1433.75 466.791 1434.76V1444.12C466.791 1445.13 466.551 1445.88 466.071 1446.36C465.644 1446.79 464.924 1447 463.911 1447ZM459.591 1439H433.431V1418.28H453.111V1417.48H433.431V1397.4H459.591V1396.6H432.631V1439.8H459.591V1439ZM516.254 1447H479.134C478.121 1447 477.374 1446.79 476.894 1446.36C476.468 1445.88 476.254 1445.13 476.254 1444.12V1392.28C476.254 1391.27 476.468 1390.55 476.894 1390.12C477.374 1389.64 478.121 1389.4 479.134 1389.4H516.254C517.268 1389.4 517.988 1389.64 518.414 1390.12C518.894 1390.55 519.134 1391.27 519.134 1392.28V1401.64C519.134 1402.65 518.894 1403.4 518.414 1403.88C517.988 1404.31 517.268 1404.52 516.254 1404.52H494.174V1410.68H509.774C510.788 1410.68 511.508 1410.92 511.934 1411.4C512.414 1411.83 512.654 1412.55 512.654 1413.56V1422.12C512.654 1423.13 512.414 1423.88 511.934 1424.36C511.508 1424.79 510.788 1425 509.774 1425H494.174V1431.88H516.254C517.268 1431.88 517.988 1432.12 518.414 1432.6C518.894 1433.03 519.134 1433.75 519.134 1434.76V1444.12C519.134 1445.13 518.894 1445.88 518.414 1446.36C517.988 1446.79 517.268 1447 516.254 1447ZM511.934 1439H485.774V1418.28H505.454V1417.48H485.774V1397.4H511.934V1396.6H484.974V1439.8H511.934V1439ZM558.198 1419.4H554.598C553.745 1419.4 553.051 1419.67 552.518 1420.2C551.985 1420.68 551.371 1421.67 550.678 1423.16L544.118 1437.88C543.905 1438.41 543.585 1438.73 543.158 1438.84C542.731 1438.95 542.331 1439 541.958 1439H541.558C541.131 1439 540.731 1438.84 540.358 1438.52C539.985 1438.15 539.771 1437.75 539.718 1437.32L537.718 1428.2C537.505 1427.19 537.371 1425.88 537.318 1424.28C537.318 1422.68 537.318 1421.29 537.318 1420.12V1396.6H536.518V1420.2C536.518 1421.37 536.518 1422.76 536.518 1424.36C536.571 1425.96 536.705 1427.27 536.918 1428.28L538.918 1437.32C539.131 1438.17 539.451 1438.81 539.878 1439.24C540.358 1439.61 540.918 1439.8 541.558 1439.8H542.118C542.598 1439.8 543.105 1439.72 543.638 1439.56C544.171 1439.35 544.545 1438.97 544.758 1438.44L551.318 1423.56C551.958 1422.12 552.491 1421.21 552.918 1420.84C553.398 1420.41 553.958 1420.2 554.598 1420.2H558.198C558.838 1420.2 559.371 1420.41 559.798 1420.84C560.278 1421.21 560.838 1422.12 561.478 1423.56L568.038 1438.44C568.251 1438.97 568.625 1439.35 569.158 1439.56C569.691 1439.72 570.198 1439.8 570.678 1439.8H571.238C571.878 1439.8 572.411 1439.61 572.838 1439.24C573.318 1438.81 573.665 1438.17 573.878 1437.32L575.878 1428.28C576.091 1427.27 576.198 1425.96 576.198 1424.36C576.251 1422.76 576.278 1421.37 576.278 1420.2V1396.6H575.478V1420.12C575.478 1421.29 575.451 1422.68 575.398 1424.28C575.398 1425.88 575.291 1427.19 575.078 1428.2L573.078 1437.32C573.025 1437.75 572.811 1438.15 572.438 1438.52C572.065 1438.84 571.665 1439 571.238 1439H570.838C570.465 1439 570.065 1438.95 569.638 1438.84C569.211 1438.73 568.891 1438.41 568.678 1437.88L562.118 1423.16C561.425 1421.67 560.811 1420.68 560.278 1420.2C559.745 1419.67 559.051 1419.4 558.198 1419.4ZM569.958 1389.4H581.878C582.891 1389.4 583.611 1389.64 584.038 1390.12C584.518 1390.55 584.758 1391.27 584.758 1392.28V1423.32C584.758 1425.03 584.678 1426.63 584.518 1428.12C584.411 1429.56 584.011 1431.27 583.318 1433.24L579.318 1444.12C579.051 1444.92 578.651 1445.61 578.118 1446.2C577.638 1446.73 576.971 1447 576.118 1447H565.478C564.625 1447 563.851 1446.81 563.158 1446.44C562.465 1446.07 562.011 1445.45 561.798 1444.6L558.118 1431.56C557.958 1431.03 557.745 1430.68 557.478 1430.52C557.265 1430.31 556.998 1430.2 556.678 1430.2H555.958C555.638 1430.2 555.345 1430.31 555.078 1430.52C554.865 1430.68 554.678 1431.03 554.518 1431.56L550.758 1444.6C550.545 1445.4 550.145 1446.01 549.558 1446.44C548.971 1446.81 548.251 1447 547.398 1447H536.838C535.985 1447 535.238 1446.73 534.598 1446.2C534.011 1445.67 533.585 1444.97 533.318 1444.12L529.318 1433.08C528.625 1431.11 528.198 1429.4 528.038 1427.96C527.931 1426.47 527.878 1424.87 527.878 1423.16V1392.28C527.878 1391.27 528.091 1390.55 528.518 1390.12C528.998 1389.64 529.745 1389.4 530.758 1389.4H543.078C544.091 1389.4 544.811 1389.64 545.238 1390.12C545.718 1390.55 545.958 1391.27 545.958 1392.28V1421.72L550.598 1411.64C551.025 1410.73 551.585 1410.09 552.278 1409.72C552.971 1409.35 553.825 1409.16 554.838 1409.16H558.198C559.211 1409.16 560.065 1409.35 560.758 1409.72C561.451 1410.09 562.011 1410.73 562.438 1411.64L567.078 1421.72V1392.28C567.078 1391.27 567.291 1390.55 567.718 1390.12C568.198 1389.64 568.945 1389.4 569.958 1389.4ZM643.883 1431.88C643.883 1434.33 643.509 1436.57 642.763 1438.6C642.069 1440.57 640.789 1442.28 638.923 1443.72C637.109 1445.11 634.576 1446.2 631.323 1447C628.123 1447.8 624.043 1448.2 619.083 1448.2C614.123 1448.2 610.016 1447.8 606.763 1447C603.509 1446.2 600.949 1445.11 599.083 1443.72C597.269 1442.28 595.989 1440.57 595.243 1438.6C594.549 1436.57 594.203 1434.33 594.203 1431.88V1404.6C594.203 1402.15 594.549 1399.93 595.243 1397.96C595.989 1395.93 597.269 1394.2 599.083 1392.76C600.949 1391.32 603.509 1390.2 606.763 1389.4C610.016 1388.6 614.123 1388.2 619.083 1388.2C624.043 1388.2 628.123 1388.6 631.323 1389.4C634.576 1390.2 637.109 1391.32 638.923 1392.76C640.789 1394.2 642.069 1395.93 642.763 1397.96C643.509 1399.93 643.883 1402.15 643.883 1404.6V1431.88ZM635.163 1430.04V1406.44C635.163 1403.24 634.016 1400.65 631.723 1398.68C629.429 1396.65 625.163 1395.64 618.923 1395.64C612.683 1395.64 608.443 1396.65 606.203 1398.68C603.963 1400.65 602.843 1403.24 602.843 1406.44V1430.04C602.843 1433.24 603.963 1435.85 606.203 1437.88C608.443 1439.85 612.683 1440.84 618.923 1440.84C625.163 1440.84 629.429 1439.85 631.723 1437.88C634.016 1435.85 635.163 1433.24 635.163 1430.04ZM603.643 1430.04V1406.44C603.643 1403.45 604.709 1401.05 606.843 1399.24C608.976 1397.37 613.003 1396.44 618.923 1396.44C624.843 1396.44 628.896 1397.37 631.083 1399.24C633.269 1401.05 634.363 1403.45 634.363 1406.44V1430.04C634.363 1433.03 633.269 1435.45 631.083 1437.32C628.896 1439.13 624.843 1440.04 618.923 1440.04C613.003 1440.04 608.976 1439.13 606.843 1437.32C604.709 1435.45 603.643 1433.03 603.643 1430.04ZM612.363 1429C612.363 1430.07 612.763 1430.97 613.563 1431.72C614.363 1432.41 616.203 1432.76 619.083 1432.76C621.963 1432.76 623.803 1432.41 624.603 1431.72C625.403 1430.97 625.803 1430.07 625.803 1429V1407.48C625.803 1406.47 625.403 1405.61 624.603 1404.92C623.803 1404.17 621.963 1403.8 619.083 1403.8C616.203 1403.8 614.363 1404.17 613.563 1404.92C612.763 1405.61 612.363 1406.47 612.363 1407.48V1429ZM680.947 1397.4C683.774 1397.4 685.854 1398.17 687.187 1399.72C688.574 1401.27 689.267 1403.27 689.267 1405.72V1411.32C689.267 1414.25 688.707 1416.52 687.587 1418.12C686.467 1419.72 684.254 1420.52 680.947 1420.52H663.507V1397.4H680.947ZM672.147 1403.8V1414.04H678.147C679.534 1414.04 680.467 1413.69 680.947 1413C681.427 1412.25 681.667 1411.35 681.667 1410.28V1407.56C681.667 1406.49 681.427 1405.61 680.947 1404.92C680.467 1404.17 679.534 1403.8 678.147 1403.8H672.147ZM663.507 1439.8V1421.24H686.147C689.187 1421.24 691.427 1421.91 692.867 1423.24C694.307 1424.52 695.027 1426.47 695.027 1429.08V1439.8H695.827V1429.08C695.827 1426.31 695.027 1424.2 693.427 1422.76C691.827 1421.27 689.4 1420.52 686.147 1420.52H685.267C687.187 1419.93 688.467 1418.87 689.107 1417.32C689.747 1415.72 690.067 1413.69 690.067 1411.24V1405.72C690.067 1403.11 689.32 1400.95 687.827 1399.24C686.334 1397.48 684.04 1396.6 680.947 1396.6H662.707V1439.8H663.507ZM669.267 1447H656.947C655.934 1447 655.187 1446.79 654.707 1446.36C654.28 1445.88 654.067 1445.13 654.067 1444.12V1392.28C654.067 1391.27 654.28 1390.55 654.707 1390.12C655.187 1389.64 655.934 1389.4 656.947 1389.4H683.587C689.56 1389.4 693.667 1390.65 695.907 1393.16C698.2 1395.61 699.347 1398.81 699.347 1402.76V1406.44C699.347 1408.68 699 1410.6 698.307 1412.2C697.667 1413.75 696.52 1414.87 694.867 1415.56C697.747 1415.88 700.067 1417.05 701.827 1419.08C703.64 1421.11 704.547 1423.8 704.547 1427.16V1444.12C704.547 1445.13 704.307 1445.88 703.827 1446.36C703.4 1446.79 702.68 1447 701.667 1447H689.267C688.254 1447 687.507 1446.79 687.027 1446.36C686.6 1445.88 686.387 1445.13 686.387 1444.12V1431.88C686.387 1430.71 686.147 1429.85 685.667 1429.32C685.24 1428.73 684.467 1428.44 683.347 1428.44H672.147V1444.12C672.147 1445.13 671.907 1445.88 671.427 1446.36C671 1446.79 670.28 1447 669.267 1447ZM723.04 1439.8V1418.68H744.56C747.493 1418.68 749.707 1419.21 751.2 1420.28C752.693 1421.35 753.44 1423.16 753.44 1425.72V1439.8H754.24V1425.72C754.24 1422.95 753.44 1420.95 751.84 1419.72C750.24 1418.49 747.813 1417.88 744.56 1417.88H741.28L750.48 1396.6H749.6L740.4 1417.88H723.04V1396.6H722.24V1439.8H723.04ZM728.8 1447H716.4C715.387 1447 714.64 1446.79 714.16 1446.36C713.733 1445.88 713.52 1445.13 713.52 1444.12V1392.28C713.52 1391.27 713.733 1390.55 714.16 1390.12C714.64 1389.64 715.387 1389.4 716.4 1389.4H728.8C729.813 1389.4 730.533 1389.64 730.96 1390.12C731.44 1390.55 731.68 1391.27 731.68 1392.28V1410.68H734.88L743.12 1392.04C743.493 1391.08 744 1390.41 744.64 1390.04C745.28 1389.61 746.107 1389.4 747.12 1389.4H759.44C760.347 1389.4 760.96 1389.64 761.28 1390.12C761.6 1390.55 761.573 1391.19 761.2 1392.04L753.04 1410.68C756.027 1410.84 758.4 1411.91 760.16 1413.88C761.973 1415.8 762.88 1418.36 762.88 1421.56V1444.12C762.88 1445.13 762.64 1445.88 762.16 1446.36C761.733 1446.79 761.013 1447 760 1447H747.68C746.667 1447 745.92 1446.79 745.44 1446.36C745.013 1445.88 744.8 1445.13 744.8 1444.12V1428.52C744.8 1427.67 744.587 1427 744.16 1426.52C743.733 1426.04 743.093 1425.8 742.24 1425.8H731.68V1444.12C731.68 1445.13 731.44 1445.88 730.96 1446.36C730.533 1446.79 729.813 1447 728.8 1447ZM813.208 1447H776.088C775.074 1447 774.328 1446.79 773.848 1446.36C773.421 1445.88 773.208 1445.13 773.208 1444.12V1392.28C773.208 1391.27 773.421 1390.55 773.848 1390.12C774.328 1389.64 775.074 1389.4 776.088 1389.4H813.208C814.221 1389.4 814.941 1389.64 815.368 1390.12C815.848 1390.55 816.088 1391.27 816.088 1392.28V1401.64C816.088 1402.65 815.848 1403.4 815.368 1403.88C814.941 1404.31 814.221 1404.52 813.208 1404.52H791.128V1410.68H806.728C807.741 1410.68 808.461 1410.92 808.888 1411.4C809.368 1411.83 809.608 1412.55 809.608 1413.56V1422.12C809.608 1423.13 809.368 1423.88 808.888 1424.36C808.461 1424.79 807.741 1425 806.728 1425H791.128V1431.88H813.208C814.221 1431.88 814.941 1432.12 815.368 1432.6C815.848 1433.03 816.088 1433.75 816.088 1434.76V1444.12C816.088 1445.13 815.848 1445.88 815.368 1446.36C814.941 1446.79 814.221 1447 813.208 1447ZM808.888 1439H782.728V1418.28H802.408V1417.48H782.728V1397.4H808.888V1396.6H781.928V1439.8H808.888V1439ZM852.431 1397.4C855.258 1397.4 857.338 1398.17 858.671 1399.72C860.058 1401.27 860.751 1403.27 860.751 1405.72V1411.32C860.751 1414.25 860.191 1416.52 859.071 1418.12C857.951 1419.72 855.738 1420.52 852.431 1420.52H834.991V1397.4H852.431ZM843.631 1403.8V1414.04H849.631C851.018 1414.04 851.951 1413.69 852.431 1413C852.911 1412.25 853.151 1411.35 853.151 1410.28V1407.56C853.151 1406.49 852.911 1405.61 852.431 1404.92C851.951 1404.17 851.018 1403.8 849.631 1403.8H843.631ZM834.991 1439.8V1421.24H857.631C860.671 1421.24 862.911 1421.91 864.351 1423.24C865.791 1424.52 866.511 1426.47 866.511 1429.08V1439.8H867.311V1429.08C867.311 1426.31 866.511 1424.2 864.911 1422.76C863.311 1421.27 860.885 1420.52 857.631 1420.52H856.751C858.671 1419.93 859.951 1418.87 860.591 1417.32C861.231 1415.72 861.551 1413.69 861.551 1411.24V1405.72C861.551 1403.11 860.805 1400.95 859.311 1399.24C857.818 1397.48 855.525 1396.6 852.431 1396.6H834.191V1439.8H834.991ZM840.751 1447H828.431C827.418 1447 826.671 1446.79 826.191 1446.36C825.765 1445.88 825.551 1445.13 825.551 1444.12V1392.28C825.551 1391.27 825.765 1390.55 826.191 1390.12C826.671 1389.64 827.418 1389.4 828.431 1389.4H855.071C861.045 1389.4 865.151 1390.65 867.391 1393.16C869.685 1395.61 870.831 1398.81 870.831 1402.76V1406.44C870.831 1408.68 870.485 1410.6 869.791 1412.2C869.151 1413.75 868.005 1414.87 866.351 1415.56C869.231 1415.88 871.551 1417.05 873.311 1419.08C875.125 1421.11 876.031 1423.8 876.031 1427.16V1444.12C876.031 1445.13 875.791 1445.88 875.311 1446.36C874.885 1446.79 874.165 1447 873.151 1447H860.751C859.738 1447 858.991 1446.79 858.511 1446.36C858.085 1445.88 857.871 1445.13 857.871 1444.12V1431.88C857.871 1430.71 857.631 1429.85 857.151 1429.32C856.725 1428.73 855.951 1428.44 854.831 1428.44H843.631V1444.12C843.631 1445.13 843.391 1445.88 842.911 1446.36C842.485 1446.79 841.765 1447 840.751 1447ZM911.724 1447H886.444C885.431 1447 884.684 1446.79 884.204 1446.36C883.778 1445.88 883.564 1445.13 883.564 1444.12V1434.76C883.564 1433.75 883.778 1433.03 884.204 1432.6C884.684 1432.12 885.431 1431.88 886.444 1431.88H907.964C908.658 1431.88 909.164 1431.67 909.484 1431.24C909.858 1430.76 910.044 1430.2 910.044 1429.56C910.044 1428.65 909.858 1427.99 909.484 1427.56C909.164 1427.13 908.658 1426.89 907.964 1426.84L895.964 1425.16C892.231 1424.63 889.218 1423.4 886.924 1421.48C884.684 1419.56 883.564 1416.36 883.564 1411.88V1403.48C883.564 1398.95 885.031 1395.48 887.964 1393.08C890.898 1390.63 894.951 1389.4 900.124 1389.4H922.524C923.538 1389.4 924.258 1389.64 924.684 1390.12C925.164 1390.55 925.404 1391.27 925.404 1392.28V1401.8C925.404 1402.81 925.164 1403.56 924.684 1404.04C924.258 1404.47 923.538 1404.68 922.524 1404.68H903.884C903.191 1404.68 902.658 1404.92 902.284 1405.4C901.911 1405.83 901.724 1406.39 901.724 1407.08C901.724 1407.77 901.911 1408.36 902.284 1408.84C902.658 1409.32 903.191 1409.59 903.884 1409.64L915.804 1411.24C919.538 1411.77 922.551 1413 924.844 1414.92C927.138 1416.84 928.284 1420.04 928.284 1424.52V1432.92C928.284 1437.45 926.791 1440.95 923.804 1443.4C920.871 1445.8 916.844 1447 911.724 1447ZM918.204 1396.6H900.444C897.991 1396.6 896.018 1397.29 894.524 1398.68C893.031 1400.01 892.284 1401.75 892.284 1403.88V1410.44C892.284 1412.63 892.711 1414.15 893.564 1415C894.471 1415.8 895.618 1416.33 897.004 1416.6L913.884 1420.04C915.378 1420.36 916.551 1421 917.404 1421.96C918.311 1422.87 918.764 1424.57 918.764 1427.08V1431.72C918.764 1433.85 918.018 1435.61 916.524 1437C915.084 1438.33 913.138 1439 910.684 1439H890.764V1439.8H910.684C913.404 1439.8 915.564 1439.05 917.164 1437.56C918.764 1436.01 919.564 1434.07 919.564 1431.72V1427.08C919.564 1424.31 919.031 1422.39 917.964 1421.32C916.951 1420.25 915.644 1419.56 914.044 1419.24L897.164 1415.8C895.938 1415.59 894.951 1415.11 894.204 1414.36C893.458 1413.61 893.084 1412.31 893.084 1410.44V1403.88C893.084 1402.01 893.751 1400.47 895.084 1399.24C896.418 1398.01 898.204 1397.4 900.444 1397.4H918.204V1396.6Z" fill="white"/>
<path d="M358.409 1299H317.689C316.676 1299 315.929 1298.79 315.449 1298.36C315.022 1297.88 314.809 1297.13 314.809 1296.12V1244.28C314.809 1243.27 315.022 1242.55 315.449 1242.12C315.929 1241.64 316.676 1241.4 317.689 1241.4H330.089C331.102 1241.4 331.822 1241.64 332.249 1242.12C332.729 1242.55 332.969 1243.27 332.969 1244.28V1283.88H343.929V1270.92C343.929 1269.91 344.142 1269.19 344.569 1268.76C345.049 1268.28 345.796 1268.04 346.809 1268.04H358.409C359.422 1268.04 360.142 1268.28 360.569 1268.76C361.049 1269.19 361.289 1269.91 361.289 1270.92V1296.12C361.289 1297.13 361.049 1297.88 360.569 1298.36C360.142 1298.79 359.422 1299 358.409 1299ZM323.529 1291.8H352.969V1275.24H352.169V1291H324.329V1248.6H323.529V1291.8ZM410.434 1299H373.314C372.301 1299 371.554 1298.79 371.074 1298.36C370.647 1297.88 370.434 1297.13 370.434 1296.12V1244.28C370.434 1243.27 370.647 1242.55 371.074 1242.12C371.554 1241.64 372.301 1241.4 373.314 1241.4H410.434C411.447 1241.4 412.167 1241.64 412.594 1242.12C413.074 1242.55 413.314 1243.27 413.314 1244.28V1253.64C413.314 1254.65 413.074 1255.4 412.594 1255.88C412.167 1256.31 411.447 1256.52 410.434 1256.52H388.354V1262.68H403.954C404.967 1262.68 405.687 1262.92 406.114 1263.4C406.594 1263.83 406.834 1264.55 406.834 1265.56V1274.12C406.834 1275.13 406.594 1275.88 406.114 1276.36C405.687 1276.79 404.967 1277 403.954 1277H388.354V1283.88H410.434C411.447 1283.88 412.167 1284.12 412.594 1284.6C413.074 1285.03 413.314 1285.75 413.314 1286.76V1296.12C413.314 1297.13 413.074 1297.88 412.594 1298.36C412.167 1298.79 411.447 1299 410.434 1299ZM406.114 1291H379.954V1270.28H399.634V1269.48H379.954V1249.4H406.114V1248.6H379.154V1291.8H406.114V1291ZM449.978 1299H437.018C436.004 1299 435.258 1298.79 434.778 1298.36C434.351 1297.88 434.138 1297.13 434.138 1296.12V1256.84H422.378C421.364 1256.84 420.618 1256.63 420.138 1256.2C419.711 1255.72 419.498 1254.97 419.498 1253.96V1244.28C419.498 1243.27 419.711 1242.55 420.138 1242.12C420.618 1241.64 421.364 1241.4 422.378 1241.4H464.618C465.631 1241.4 466.351 1241.64 466.778 1242.12C467.258 1242.55 467.498 1243.27 467.498 1244.28V1253.96C467.498 1254.97 467.258 1255.72 466.778 1256.2C466.351 1256.63 465.631 1256.84 464.618 1256.84H452.858V1296.12C452.858 1297.13 452.618 1297.88 452.138 1298.36C451.711 1298.79 450.991 1299 449.978 1299ZM443.098 1291.8H443.898V1249.4H460.298V1248.6H426.698V1249.4H443.098V1291.8ZM484.238 1271.4H478.078C477.064 1271.4 476.318 1271.19 475.838 1270.76C475.411 1270.28 475.198 1269.53 475.198 1268.52V1265.32C475.198 1264.31 475.411 1263.59 475.838 1263.16C476.318 1262.68 477.064 1262.44 478.078 1262.44H483.598C484.291 1262.44 484.824 1262.25 485.198 1261.88C485.571 1261.45 485.758 1260.89 485.758 1260.2V1259H477.038C476.024 1259 475.278 1258.79 474.798 1258.36C474.371 1257.88 474.158 1257.13 474.158 1256.12V1244.28C474.158 1243.27 474.371 1242.55 474.798 1242.12C475.278 1241.64 476.024 1241.4 477.038 1241.4H493.198C494.211 1241.4 494.931 1241.64 495.358 1242.12C495.838 1242.55 496.078 1243.27 496.078 1244.28V1259.32C496.078 1263.37 494.984 1266.41 492.798 1268.44C490.664 1270.41 487.811 1271.4 484.238 1271.4ZM490.478 1249.8H479.758V1250.6H489.678V1259.32C489.678 1261.45 489.118 1263.08 487.998 1264.2C486.878 1265.27 485.358 1265.8 483.438 1265.8H479.758V1266.6H483.438C485.571 1266.6 487.278 1266.01 488.558 1264.84C489.838 1263.61 490.478 1261.77 490.478 1259.32V1249.8ZM531.92 1299H506.64C505.626 1299 504.88 1298.79 504.4 1298.36C503.973 1297.88 503.76 1297.13 503.76 1296.12V1286.76C503.76 1285.75 503.973 1285.03 504.4 1284.6C504.88 1284.12 505.626 1283.88 506.64 1283.88H528.16C528.853 1283.88 529.36 1283.67 529.68 1283.24C530.053 1282.76 530.24 1282.2 530.24 1281.56C530.24 1280.65 530.053 1279.99 529.68 1279.56C529.36 1279.13 528.853 1278.89 528.16 1278.84L516.16 1277.16C512.426 1276.63 509.413 1275.4 507.12 1273.48C504.88 1271.56 503.76 1268.36 503.76 1263.88V1255.48C503.76 1250.95 505.226 1247.48 508.16 1245.08C511.093 1242.63 515.146 1241.4 520.32 1241.4H542.72C543.733 1241.4 544.453 1241.64 544.88 1242.12C545.36 1242.55 545.6 1243.27 545.6 1244.28V1253.8C545.6 1254.81 545.36 1255.56 544.88 1256.04C544.453 1256.47 543.733 1256.68 542.72 1256.68H524.08C523.386 1256.68 522.853 1256.92 522.48 1257.4C522.106 1257.83 521.92 1258.39 521.92 1259.08C521.92 1259.77 522.106 1260.36 522.48 1260.84C522.853 1261.32 523.386 1261.59 524.08 1261.64L536 1263.24C539.733 1263.77 542.746 1265 545.04 1266.92C547.333 1268.84 548.48 1272.04 548.48 1276.52V1284.92C548.48 1289.45 546.986 1292.95 544 1295.4C541.066 1297.8 537.04 1299 531.92 1299ZM538.4 1248.6H520.64C518.186 1248.6 516.213 1249.29 514.72 1250.68C513.226 1252.01 512.48 1253.75 512.48 1255.88V1262.44C512.48 1264.63 512.906 1266.15 513.76 1267C514.666 1267.8 515.813 1268.33 517.2 1268.6L534.08 1272.04C535.573 1272.36 536.746 1273 537.6 1273.96C538.506 1274.87 538.96 1276.57 538.96 1279.08V1283.72C538.96 1285.85 538.213 1287.61 536.72 1289C535.28 1290.33 533.333 1291 530.88 1291H510.96V1291.8H530.88C533.6 1291.8 535.76 1291.05 537.36 1289.56C538.96 1288.01 539.76 1286.07 539.76 1283.72V1279.08C539.76 1276.31 539.226 1274.39 538.16 1273.32C537.146 1272.25 535.84 1271.56 534.24 1271.24L517.36 1267.8C516.133 1267.59 515.146 1267.11 514.4 1266.36C513.653 1265.61 513.28 1264.31 513.28 1262.44V1255.88C513.28 1254.01 513.946 1252.47 515.28 1251.24C516.613 1250.01 518.4 1249.4 520.64 1249.4H538.4V1248.6Z" fill="white"/>
</svg>
