<svg width="100" height="100" viewBox="0 0 100 100" fill="none" xmlns="http://www.w3.org/2000/svg">
<rect width="100" height="100" fill="#F0F0F0"/>
<path d="M44.75 50C44.75 50.1989 44.671 50.3897 44.5303 50.5303C44.3897 50.671 44.1989 50.75 44 50.75C43.8011 50.75 43.6103 50.671 43.4697 50.5303C43.329 50.3897 43.25 50.1989 43.25 50C43.25 49.8011 43.329 49.6103 43.4697 49.4697C43.6103 49.329 43.8011 49.25 44 49.25C44.1989 49.25 44.3897 49.329 44.5303 49.4697C44.671 49.6103 44.75 49.8011 44.75 50ZM50.75 50C50.75 50.1989 50.671 50.3897 50.5303 50.5303C50.3897 50.671 50.1989 50.75 50 50.75C49.8011 50.75 49.6103 50.671 49.4697 50.5303C49.329 50.3897 49.25 50.1989 49.25 50C49.25 49.8011 49.329 49.6103 49.4697 49.4697C49.6103 49.329 49.8011 49.25 50 49.25C50.1989 49.25 50.3897 49.329 50.5303 49.4697C50.671 49.6103 50.75 49.8011 50.75 50ZM56.75 50C56.75 50.1989 56.671 50.3897 56.5303 50.5303C56.3897 50.671 56.1989 50.75 56 50.75C55.8011 50.75 55.6103 50.671 55.4697 50.5303C55.329 50.3897 55.25 50.1989 55.25 50C55.25 49.8011 55.329 49.6103 55.4697 49.4697C55.6103 49.329 55.8011 49.25 56 49.25C56.1989 49.25 56.3897 49.329 56.5303 49.4697C56.671 49.6103 56.75 49.8011 56.75 50Z" stroke="#BEBEBE" stroke-width="1.5" stroke-linecap="round" stroke-linejoin="round"/>
</svg>
